<?xml version="1.0" standalone="no"?>
<!DOCTYPE svg PUBLIC "-//W3C//DTD SVG 20010904//EN"
 "http://www.w3.org/TR/2001/REC-SVG-20010904/DTD/svg10.dtd">
<svg version="1.0" xmlns="http://www.w3.org/2000/svg"
 width="624.000000pt" height="624.000000pt" viewBox="0 0 624.000000 624.000000"
 preserveAspectRatio="xMidYMid meet">

<g transform="translate(0.000000,624.000000) scale(0.100000,-0.100000)"
fill="#ffffff" stroke="none">
<path d="M260 6159 c-97 -19 -181 -107 -200 -209 -14 -73 -14 -5597 0 -5670
13 -71 53 -130 113 -171 l50 -34 2882 0 2882 0 50 34 c74 50 107 109 111 196
3 58 0 77 -20 113 -14 27 -351 371 -906 926 l-884 883 907 1813 907 1814 -4
71 c-2 57 -9 79 -32 116 -40 63 -107 107 -181 119 -76 12 -5611 11 -5675 -1z
m1645 -1089 l-600 -600 -297 592 c-163 326 -297 596 -297 601 -1 4 403 7 896
7 l898 0 -600 -600z m3395 597 c0 -1 -439 -441 -975 -977 l-975 -975 0 978 0
977 975 0 c536 0 975 -1 975 -3z m-2450 -1327 l0 -970 -498 0 -497 0 -158 317
-159 316 654 654 c359 359 654 653 655 653 2 0 3 -436 3 -970z m-2108 -432
l-192 -193 1 575 0 575 192 -383 192 -382 -193 -192z m3742 -280 l-516 -1031
-259 259 -259 259 772 772 c425 425 774 773 775 773 2 0 -229 -464 -513 -1032z
m-3249 -128 l65 -130 -197 0 -198 0 130 130 c71 72 131 130 132 130 2 0 32
-58 68 -130z m474 -948 l159 -319 -659 -659 -659 -659 0 978 0 977 500 0 500
0 159 -318z m666 188 c-71 -71 -132 -130 -135 -130 -5 0 -130 245 -130 255 0
3 89 5 197 5 l198 0 -130 -130z m474 -792 l0 -563 -189 375 -188 375 186 188
c103 103 188 187 189 187 2 0 3 -253 2 -562z m694 -200 l-192 -383 0 575 -1
575 192 -193 193 -192 -192 -382z m-1140 -583 l297 -595 -897 0 -898 0 595
595 c327 327 597 595 600 595 3 0 139 -268 303 -595z m2297 0 l595 -595 -893
0 -892 0 297 595 c164 327 298 595 298 595 0 0 268 -268 595 -595z"/>
</g>
</svg>
